<?xml version="1.0" standalone="no"?>
<!DOCTYPE svg PUBLIC "-//W3C//DTD SVG 20010904//EN"
 "http://www.w3.org/TR/2001/REC-SVG-20010904/DTD/svg10.dtd">
<svg version="1.0" xmlns="http://www.w3.org/2000/svg"
 width="260.000000pt" height="260.000000pt" viewBox="0 0 260.000000 260.000000"
 preserveAspectRatio="xMidYMid meet">
<metadata>
Created by potrace 1.11, written by Peter Selinger 2001-2013
</metadata>
<g transform="translate(0.000000,260.000000) scale(0.100000,-0.100000)"
fill="#000000" stroke="none">
<path d="M1200 2294 c-255 -39 -439 -126 -597 -282 -245 -242 -345 -574 -278
-921 45 -234 226 -494 435 -626 201 -127 412 -176 655 -151 93 9 90 9 175 34
132 39 288 129 391 224 56 53 146 163 178 219 111 191 161 433 132 634 -16
103 -20 123 -42 189 -85 251 -267 460 -504 579 -71 35 -185 75 -240 83 -16 3
-37 7 -45 10 -19 7 -227 13 -260 8z m256 -138 c208 -38 414 -167 540 -339 121
-164 175 -334 168 -535 -4 -128 -5 -136 -24 -202 -7 -25 -15 -52 -16 -60 -7
-39 -101 -204 -150 -263 -300 -365 -821 -427 -1198 -143 -175 133 -300 341
-333 556 -8 53 -9 210 -1 260 57 369 347 661 723 728 52 9 237 8 291 -2z"/>
<path d="M1300 2049 c-112 -17 -138 -21 -175 -29 -22 -5 -66 -10 -97 -10 -32
0 -58 -2 -58 -5 0 -3 6 -21 14 -39 l14 -33 -60 -57 c-33 -32 -58 -60 -55 -62
3 -3 36 5 74 19 46 15 77 21 91 16 11 -4 39 -32 62 -61 23 -29 45 -54 49 -56
4 -1 12 17 18 40 14 51 48 104 85 131 21 16 44 20 117 21 50 0 91 4 91 8 0 4
-27 19 -60 34 -65 29 -74 49 -32 70 51 25 30 28 -78 13z"/>
<path d="M1549 1906 c7 -8 41 -35 75 -61 35 -25 69 -57 76 -70 12 -22 8 -29
-39 -92 -28 -37 -51 -72 -51 -76 0 -7 60 -2 100 8 8 2 35 6 60 9 44 5 46 4 80
-42 19 -26 48 -66 63 -89 16 -24 33 -45 37 -48 8 -5 3 117 -5 143 -7 19 18 25
59 14 20 -6 36 -7 36 -4 0 4 -34 42 -75 85 -41 43 -100 114 -132 158 -31 43
-60 79 -64 79 -3 0 -9 -13 -12 -29 l-6 -29 -73 23 c-40 12 -88 25 -107 29 -28
5 -32 4 -22 -8z"/>
<path d="M729 1833 c-95 -98 -160 -216 -175 -315 l-6 -43 32 43 c17 23 34 42
37 42 3 0 14 -11 25 -25 26 -33 34 -32 33 8 -2 65 74 196 124 212 31 10 32 31
2 29 -42 -2 -52 5 -40 28 11 20 30 78 25 78 -1 0 -27 -26 -57 -57z"/>
<path d="M1168 1694 c-3 -5 -9 -36 -12 -69 -10 -91 -16 -138 -21 -155 -3 -9
-33 -28 -67 -44 -35 -15 -70 -32 -78 -37 -8 -5 -25 -14 -37 -21 -32 -16 -29
-23 19 -38 24 -7 73 -26 110 -42 58 -26 68 -35 69 -57 4 -99 24 -211 37 -211
4 1 20 22 36 48 17 26 47 70 68 99 37 50 39 51 70 42 18 -6 47 -13 63 -15 17
-3 58 -11 92 -18 34 -7 66 -10 71 -7 5 3 -28 46 -74 95 -46 49 -84 95 -84 101
0 6 31 56 70 110 38 54 68 100 66 102 -2 3 -57 -9 -122 -26 -64 -17 -121 -31
-125 -31 -4 0 -29 28 -56 63 -26 34 -51 67 -56 72 -4 6 -14 19 -21 29 -7 10
-15 15 -18 10z"/>
<path d="M648 1430 c-7 -16 -16 -30 -20 -30 -5 0 -8 -6 -8 -13 0 -7 -22 -41
-50 -75 -27 -34 -45 -64 -40 -67 27 -17 52 -91 56 -169 3 -44 9 -85 13 -89 5
-5 21 14 36 42 16 28 32 51 38 51 5 0 33 -13 63 -30 30 -16 54 -25 54 -21 0 5
-13 40 -29 77 -19 44 -26 74 -21 84 4 8 38 46 75 84 l66 69 -90 -5 c-81 -4
-91 -2 -97 14 -6 19 -12 62 -13 91 -1 27 -18 20 -33 -13z"/>
<path d="M1960 1355 c-6 -14 -15 -37 -22 -52 -6 -16 -12 -34 -14 -41 -1 -7
-14 -32 -29 -57 -31 -54 -48 -60 -172 -58 -51 1 -93 -2 -93 -5 0 -4 32 -39 72
-79 54 -54 69 -75 61 -85 -6 -7 -24 -39 -41 -70 -31 -58 -26 -73 14 -43 10 8
26 15 35 15 8 0 34 9 57 20 45 22 68 25 77 10 3 -5 15 -14 25 -20 17 -9 21 -5
31 32 28 103 44 145 79 207 21 36 42 79 46 95 l7 29 -46 -32 c-25 -17 -48 -27
-51 -22 -5 8 -17 111 -20 164 -1 23 -5 21 -16 -8z"/>
<path d="M1110 944 c-30 -24 -69 -53 -86 -63 l-32 -19 -81 56 c-44 31 -83 54
-85 51 -2 -2 11 -37 30 -78 19 -41 33 -76 30 -78 -3 -3 -13 -6 -84 -19 -18 -3
-35 -10 -37 -15 -7 -10 53 -41 125 -63 65 -20 114 -46 192 -98 89 -59 89 -59
82 5 l-6 55 48 2 c27 0 57 1 67 1 25 0 12 16 -20 24 -16 3 -43 18 -61 31 l-32
25 6 115 c3 63 4 114 2 113 -1 0 -28 -20 -58 -45z"/>
<path d="M1645 797 c-53 -66 -108 -117 -128 -118 -12 -1 -57 -1 -99 -1 -84 0
-90 -8 -38 -47 17 -12 30 -25 30 -29 0 -5 -18 -19 -41 -31 -22 -13 -38 -25
-36 -27 8 -8 140 16 207 38 81 26 180 75 245 122 57 41 52 44 -31 16 -32 -11
-64 -18 -71 -16 -7 3 -13 29 -15 61 l-3 57 -20 -25z"/>
</g>
</svg>
